<?xml version="1.0" standalone="no"?>
<!DOCTYPE svg PUBLIC "-//W3C//DTD SVG 20010904//EN"
 "http://www.w3.org/TR/2001/REC-SVG-20010904/DTD/svg10.dtd">
<svg version="1.0" xmlns="http://www.w3.org/2000/svg"
 width="305.000000pt" height="305.000000pt" viewBox="0 0 305.000000 305.000000"
 preserveAspectRatio="xMidYMid meet">
<metadata>
Created by potrace 1.11, written by Peter Selinger 2001-2013
</metadata>
<g transform="translate(0.000000,305.000000) scale(0.100000,-0.100000)"
fill="#000000" stroke="none">
<path d="M1458 2587 c-374 -374 -719 -956 -893 -1507 -46 -146 -107 -395 -103
-419 l3 -20 45 20 c57 26 226 62 393 85 l127 18 1 105 c2 279 53 829 88 941
50 160 156 260 309 290 175 35 336 -43 427 -205 80 -143 113 -327 135 -760 6
-116 13 -247 16 -291 l6 -81 111 -12 c129 -13 258 -38 393 -77 52 -14 97 -24
99 -22 7 7 -62 250 -120 423 -127 378 -301 731 -523 1060 -41 61 -88 125 -104
143 -15 18 -26 37 -23 42 3 5 -3 11 -12 14 -10 3 -28 21 -40 38 -50 73 -250
268 -275 268 -4 0 -31 -24 -60 -53z"/>
<path d="M1748 1555 c-107 -58 -158 -92 -158 -105 0 -14 61 -30 114 -30 60 0
108 25 129 67 17 34 30 110 20 116 -5 3 -52 -19 -105 -48z"/>
<path d="M1170 1548 c0 -17 9 -51 20 -74 33 -66 110 -89 205 -60 22 6 40 18
40 26 0 13 -227 139 -252 140 -8 0 -13 -13 -13 -32z"/>
</g>
</svg>
